<svg id="Layer_1" data-name="Layer 1" xmlns="http://www.w3.org/2000/svg" viewBox="0 0 638 181.94"><defs><style>.cls-1{fill:#1e4583;}.cls-2{fill:#fefefe;}.cls-3{fill:#e7252f;}</style></defs><title>Nippon Paint Logo Vector</title><path class="cls-1" d="M653.06,539.75l-5.62,30.84a2.25,2.25,0,0,1-.3.88,2.53,2.53,0,0,1-.6.7,2.39,2.39,0,0,1-.82.43,2.64,2.64,0,0,1-.93.1H626.52c-1.69,0-2.29-.87-2-2.56l10.51-58.44c.46-2.47,1.28-3.15,3.8-3.15h19a3.43,3.43,0,0,1,1.06.08,3.36,3.36,0,0,1,1,.42,3.19,3.19,0,0,1,.79.72,3.24,3.24,0,0,1,.51.93c4.85,9.91,9.74,19.73,14.62,29.6l.55,1c.6-3.61,1.1-6.95,1.69-10.28,1.19-6.72,2.47-13.39,3.66-20.11a2.59,2.59,0,0,1,.26-1,2.61,2.61,0,0,1,1.51-1.31,2.71,2.71,0,0,1,1-.13h18.27c1.74,0,2.29.82,1.92,2.74-1.19,6.67-2.38,13.3-3.56,20q-3.39,19-6.72,37.92c-.55,3.06-1.1,3.57-4.16,3.57H671.57a3,3,0,0,1-.94-.08,2.72,2.72,0,0,1-.88-.36,3,3,0,0,1-.71-.62,3,3,0,0,1-.49-.82c-4.84-10-9.77-20-14.66-29.92Z" transform="translate(-181 -409.03)"/><path class="cls-1" d="M790.68,460.85c1.42-10.33,3.47-20.33,5.39-30.39a3.09,3.09,0,0,1,.07-.52,2.38,2.38,0,0,1,.18-.51,2.6,2.6,0,0,1,.28-.45,2.72,2.72,0,0,1,.37-.39,3.3,3.3,0,0,1,.43-.3,3.11,3.11,0,0,1,.5-.21,2.27,2.27,0,0,1,.52-.09,1.88,1.88,0,0,1,.53,0h17.82c1.87,0,2.47.87,2.15,2.74L808.41,489.5a3.73,3.73,0,0,1-.07.56,3.35,3.35,0,0,1-.19.53,2.92,2.92,0,0,1-.29.48,2.19,2.19,0,0,1-.38.42,2.15,2.15,0,0,1-.46.33,2.38,2.38,0,0,1-.51.24,2.57,2.57,0,0,1-.55.12,2.72,2.72,0,0,1-.57,0H785.24a2.34,2.34,0,0,1-.79-.13,2.61,2.61,0,0,1-.73-.36,2.57,2.57,0,0,1-.57-.57,2.46,2.46,0,0,1-.37-.72l-14.62-29.79-.83-1.6c-1.09,7.63-2.65,14.94-3.88,22.25-.46,2.83-1,5.62-1.55,8.41a2.77,2.77,0,0,1-.28,1,2.67,2.67,0,0,1-.66.84,2.47,2.47,0,0,1-.93.5,2.72,2.72,0,0,1-1.06.11H741c-1.74,0-2.52-.92-2.2-2.61q5.4-29.66,10.83-59.4a2.69,2.69,0,0,1,.3-1,2.31,2.31,0,0,1,.64-.78,2.48,2.48,0,0,1,.89-.48,2.64,2.64,0,0,1,1-.11h20.28a2.79,2.79,0,0,1,1.67.55,2.69,2.69,0,0,1,.63.63,2.8,2.8,0,0,1,.4.79q7.44,15.17,14.94,30.34Z" transform="translate(-181 -409.03)"/><path class="cls-1" d="M414.47,459.29l-2.19,12.29q-1.61,9.15-3.24,18.28c-.37,1.92-1.33,2.7-3.38,2.7H388.52c-2.24,0-2.88-.73-2.47-3q2.7-14.94,5.44-29.88,2.61-14.25,5.16-28.51c.37-2.06,1.15-2.83,3.25-2.83h19.69a3,3,0,0,1,1,.08,3.07,3.07,0,0,1,.87.38,2.89,2.89,0,0,1,.72.63,3.27,3.27,0,0,1,.48.83q7.08,14.29,14.25,29.05a2.87,2.87,0,0,0,.87,1.42l4.16-23.62c.36-2.1.68-4.2,1.09-6.31a3.66,3.66,0,0,1,0-.57,3.62,3.62,0,0,1,.17-.56,3.05,3.05,0,0,1,.28-.5,2.67,2.67,0,0,1,.38-.44,2.55,2.55,0,0,1,.47-.34,3.22,3.22,0,0,1,.53-.25,2.66,2.66,0,0,1,.56-.12,2.81,2.81,0,0,1,.58,0h18c1.87,0,2.42.91,2.05,2.92l-10.6,58.85a2.25,2.25,0,0,1-.08.52,2.3,2.3,0,0,1-.18.5,3,3,0,0,1-.28.44,2.22,2.22,0,0,1-.37.38,3.3,3.3,0,0,1-.43.3,3,3,0,0,1-.49.2,2.27,2.27,0,0,1-.52.09,2.35,2.35,0,0,1-.53,0h-20a2.5,2.5,0,0,1-1.53-.43,2.57,2.57,0,0,1-.59-.55,2.46,2.46,0,0,1-.39-.71q-7.32-15-14.71-29.93Z" transform="translate(-181 -409.03)"/><path class="cls-1" d="M685.09,466.15a22.62,22.62,0,0,0,.37,4.57,7.43,7.43,0,0,0,.07.94,7,7,0,0,0,.18.93,8.6,8.6,0,0,0,.29.9,6.79,6.79,0,0,0,.39.87,8.3,8.3,0,0,0,.49.81c.18.26.38.51.58.75a8.47,8.47,0,0,0,.67.67,8.32,8.32,0,0,0,.74.59c.26.19.53.35.8.51s.57.28.86.4a7.91,7.91,0,0,0,.9.3,7.67,7.67,0,0,0,.93.19,7.46,7.46,0,0,0,1.89.06,7.34,7.34,0,0,0,.94-.14,7.17,7.17,0,0,0,.91-.24,11.15,11.15,0,0,0,5.94-4.12,34.13,34.13,0,0,0,5.9-14.57,24.71,24.71,0,0,0-.64-13.21,7.05,7.05,0,0,0-.45-1.1,6.61,6.61,0,0,0-.62-1,7.49,7.49,0,0,0-.79-.9,8.36,8.36,0,0,0-.92-.75,7.07,7.07,0,0,0-1-.58,7,7,0,0,0-3.49-.63,11.3,11.3,0,0,0-9.6,6,37.09,37.09,0,0,0-5.48,18.77Zm16.77-39.3a37.65,37.65,0,0,1,19.83,4.57,23.83,23.83,0,0,1,2.76,1.81,23.69,23.69,0,0,1,4.65,4.66,24.33,24.33,0,0,1,1.8,2.77,24.62,24.62,0,0,1,1.39,3,22.94,22.94,0,0,1,1,3.15,23.79,23.79,0,0,1,.52,3.26,22.57,22.57,0,0,1,.06,3.29,39.06,39.06,0,0,1-.26,5,38.59,38.59,0,0,1-.9,4.89,37.54,37.54,0,0,1-1.51,4.72,36.82,36.82,0,0,1-2.1,4.5,38,38,0,0,1-2.66,4.19,38.69,38.69,0,0,1-3.17,3.82,37.65,37.65,0,0,1-3.64,3.39,38.36,38.36,0,0,1-4,2.89,46.55,46.55,0,0,1-14,5.7,46.27,46.27,0,0,1-7.49,1.06,45.43,45.43,0,0,1-7.56-.18,35.13,35.13,0,0,1-13.71-3.52,23.71,23.71,0,0,1-2.71-1.59,23.71,23.71,0,0,1-6.57-6.67,24.55,24.55,0,0,1-1.55-2.73,26,26,0,0,1-1.17-2.91,23,23,0,0,1-.78-3,23.32,23.32,0,0,1-.38-3.12c-.09-1.14-.12-2.28-.11-3.42s.07-2.29.18-3.43.28-2.27.49-3.39.47-2.24.77-3.34.67-2.19,1.07-3.26.85-2.12,1.34-3.15,1-2,1.61-3,1.21-1.94,1.87-2.87,1.37-1.83,2.12-2.7,1.52-1.71,2.34-2.51,1.66-1.56,2.54-2.29,1.8-1.42,2.74-2.06,1.91-1.26,2.91-1.82,2-1.08,3.05-1.56,2.1-.9,3.18-1.28,2.17-.72,3.28-1a52.63,52.63,0,0,1,12.79-1.74Z" transform="translate(-181 -409.03)"/><path class="cls-1" d="M542.91,527.14c-2.74,7.36-6.44,14.26-9.46,21.57h7.49c3.34,0,3.2,0,3-3.29a146.8,146.8,0,0,1-1-18.28Zm3.61-18.59h11.69c2.61,0,2.88.27,3.34,2.83q2.7,15.58,5.44,31.16,2.37,13.71,4.56,27.41c.28,1.69-.95,2.88-3,2.88H551.09c-4.57,0-4.57,0-4.89-4.57,0-1.5-.37-3-.51-4.56,0-.69-.36-.87-1-.87H527.42a1.21,1.21,0,0,0-.78.24,1.22,1.22,0,0,0-.46.67c-1,2.19-2.1,4.57-3.1,6.63a4,4,0,0,1-.57,1,3.71,3.71,0,0,1-.86.77,3.56,3.56,0,0,1-2.23.55H500.23c-2.56,0-3.2-1.06-2-3.29Q514.53,540,531,510.47a3.46,3.46,0,0,1,1.41-1.52,3.5,3.5,0,0,1,1-.38,3.72,3.72,0,0,1,1-.07Z" transform="translate(-181 -409.03)"/><path class="cls-1" d="M623.82,440.29h-.77c-1.37,0-2.06,0-2.29,1.78-.45,3.61-1.19,7.17-1.87,10.74s-.69,3.38,2.83,3.29a10.56,10.56,0,0,0,1.78-.06,9.51,9.51,0,0,0,1.74-.39,9.28,9.28,0,0,0,3.1-1.7,9.3,9.3,0,0,0,1.26-1.25,9.13,9.13,0,0,0,1-1.47,9.75,9.75,0,0,0,.72-1.62,10.44,10.44,0,0,0,.4-1.74,5.23,5.23,0,0,0,.24-1.24,5.39,5.39,0,0,0,0-1.27,6.55,6.55,0,0,0-.32-1.23A5.7,5.7,0,0,0,631,443a5.47,5.47,0,0,0-.82-1,5.68,5.68,0,0,0-2.17-1.28,5.31,5.31,0,0,0-1.25-.24,14,14,0,0,0-3-.19ZM618.75,428h15.81a32.83,32.83,0,0,1,9.6,1.92c.46.15.91.32,1.36.51s.88.41,1.31.64.84.49,1.24.77a15.1,15.1,0,0,1,4,4.14c.27.41.51.83.74,1.26s.43.87.61,1.32.34.91.48,1.38.25.94.34,1.42a13.49,13.49,0,0,1,.2,1.44,15.16,15.16,0,0,1,0,2.91,14.32,14.32,0,0,1-.22,1.44q-.15.72-.36,1.41a24.41,24.41,0,0,1-1,3.34,22.77,22.77,0,0,1-1.51,3.15,24.16,24.16,0,0,1-7,7.72,23.79,23.79,0,0,1-6.21,3.18,24.86,24.86,0,0,1-3.39.89,62.28,62.28,0,0,1-16.9,1.23c-1.28,0-1.83,0-2.06,1.69-1.09,6.63-2.33,13.21-3.56,19.79a2.89,2.89,0,0,1-.08.58,2.76,2.76,0,0,1-.19.55,2.8,2.8,0,0,1-.31.5,2.72,2.72,0,0,1-.41.42,3,3,0,0,1-.49.33,2.83,2.83,0,0,1-.55.21,2.91,2.91,0,0,1-.58.09,2.88,2.88,0,0,1-.59,0H589.51c-2.1,0-2.74-.74-2.37-2.75l8.08-45.09q1.18-6.58,2.33-13.21c.41-2.42,1.28-3.19,3.79-3.19Z" transform="translate(-181 -409.03)"/><path class="cls-1" d="M550.13,456.1a9.7,9.7,0,0,0,3.72-.16,9.26,9.26,0,0,0,1.77-.61,9.36,9.36,0,0,0,1.62-.94,10.36,10.36,0,0,0,1.41-1.23,9.71,9.71,0,0,0,1.15-1.49,10.44,10.44,0,0,0,.84-1.67,10.33,10.33,0,0,0,.5-1.81,5.76,5.76,0,0,0,.3-1.29,6.56,6.56,0,0,0,0-1.33,6.08,6.08,0,0,0-.31-1.29,6.32,6.32,0,0,0-.6-1.19,6,6,0,0,0-.86-1,5.59,5.59,0,0,0-1.07-.79,5.3,5.3,0,0,0-1.22-.53,5.22,5.22,0,0,0-1.3-.23,38.71,38.71,0,0,0-4.57,0c-1,0-1.24.36-1.37,1.18-.73,4.07-1.47,8.18-2.24,12.25C547.66,456.1,547.66,456.1,550.13,456.1Zm2,12h-5.49c-.82,0-1.18,0-1.32,1.05-1.14,6.49-2.33,13-3.47,19.51-.51,3-1.19,3.57-4.21,3.57H519.38c-2.06,0-3.16-1-2.74-3.25,2.78-14.71,5.39-29.42,8-44.13.82-4.57,1.69-9.14,2.56-13.94.41-2.24,1.18-2.88,3.51-2.92h33.4a30.93,30.93,0,0,1,9.6,1.92c.5.16,1,.36,1.49.57a15.79,15.79,0,0,1,1.41.74,14.61,14.61,0,0,1,1.34.87,15,15,0,0,1,1.23,1c.4.36.77.74,1.13,1.13s.69.82,1,1.25a14.51,14.51,0,0,1,.86,1.34,12.75,12.75,0,0,1,.72,1.43c.21.48.4,1,.57,1.49a15.81,15.81,0,0,1,.4,1.54c.11.52.19,1,.25,1.58a14.1,14.1,0,0,1,.07,1.59c0,.53,0,1.07-.08,1.6s-.15,1.05-.26,1.57a14,14,0,0,1-.42,1.54,15.77,15.77,0,0,1-.57,1.49,25.92,25.92,0,0,1-1.23,2.93,22.89,22.89,0,0,1-1.6,2.75,24.72,24.72,0,0,1-1.93,2.52,23.89,23.89,0,0,1-2.25,2.25,24.72,24.72,0,0,1-2.52,1.93,24,24,0,0,1-5.68,2.82,25.36,25.36,0,0,1-3.07.84,43,43,0,0,1-12.47,1.41Z" transform="translate(-181 -409.03)"/><path class="cls-1" d="M476.75,520.84a15.88,15.88,0,0,1-1.69,0c-.92,0-1.24.27-1.42,1.14-.82,4.57-1.69,9.14-2.56,13.71,0,.5,0,1,.6,1a15.65,15.65,0,0,0,8.31-1.42,9.75,9.75,0,0,0,3.72-4.38,10.14,10.14,0,0,0,.74-2.81,9.8,9.8,0,0,0-.12-2.91C483.51,522.21,481.13,520.88,476.75,520.84Zm-1.51,27.87h-5c-1.51,0-1.42.32-1.56,1.28-1.14,6.58-2.37,13.2-3.56,19.78-.41,2.24-1.28,3-3.57,3H442.44c-2.38,0-3.07-.73-2.65-3L446,534.91l4.29-23.76c.32-1.78,1.1-2.6,2.93-2.6,11.6,0,23.21-.32,34.81,0a22.61,22.61,0,0,1,7,1.12,23,23,0,0,1,6.32,3.17,14,14,0,0,1,1.61,1.37,16.14,16.14,0,0,1,1.39,1.59,14.44,14.44,0,0,1,1.13,1.78,13.85,13.85,0,0,1,.86,1.93,14.22,14.22,0,0,1,.57,2,14.19,14.19,0,0,1-.17,6.29,22.8,22.8,0,0,1-.86,3.56,23.49,23.49,0,0,1-3.31,6.52,23.76,23.76,0,0,1-5.13,5.21,23.71,23.71,0,0,1-10,4.31,44.77,44.77,0,0,1-12.15,1.28Z" transform="translate(-181 -409.03)"/><path class="cls-1" d="M748.19,508.55H775c2.69,0,3.24.68,2.69,3.29s-1.14,6-1.74,9.14c-.41,2.19-1.09,2.83-3.33,2.87H759.93c-1.09,0-1.5.23-1.69,1.37-2,11.47-4.06,22.85-6.07,34.36-.64,3.61-1.28,7.27-1.92,10.88a2.71,2.71,0,0,1-.31,1,2.59,2.59,0,0,1-.64.79,2.72,2.72,0,0,1-.88.49,2.65,2.65,0,0,1-1,.13H725.89c-1.55,0-2.1-.82-1.82-2.56q1.73-9.91,3.51-19.78,2.25-12.57,4.57-25.13c0-1.09,0-1.55-1.23-1.55H718.77c-2.61,0-3.2-.69-2.79-3.2s1-6,1.64-9.14c.42-2.24,1.37-3,3.66-3h27Z" transform="translate(-181 -409.03)"/><path class="cls-1" d="M593.9,572.74H583.75c-2.19,0-2.87-.77-2.46-2.88L591.93,511a3.07,3.07,0,0,1,.07-.53,2.38,2.38,0,0,1,.18-.51,2.6,2.6,0,0,1,.28-.45,3.33,3.33,0,0,1,.36-.39,4.27,4.27,0,0,1,.44-.3,3,3,0,0,1,.49-.2,2,2,0,0,1,.53-.1,2.35,2.35,0,0,1,.53,0h21.06c1.83,0,2.38.77,2,2.6l-10.41,58.76c-.37,2.06-1.24,2.83-3.43,2.83Z" transform="translate(-181 -409.03)"/><path class="cls-1" d="M485.8,492.19h-10c-2.38,0-3-.73-2.56-3.06q3.15-17.46,6.35-34.95l4.2-23.3c.42-2.24,1.15-2.93,3.43-2.93h20.15c2.24,0,2.79.64,2.38,2.83l-9.14,52.27c-.37,2.06-.73,4.12-1.05,6.13s-1.24,3-3.43,3Z" transform="translate(-181 -409.03)"/><path class="cls-1" d="M284.58,589.92H365c1.42,0,1.78-.36,1.78-1.78V433.39a18.56,18.56,0,0,0,0-2.79c-.09-.72-.23-1.45-.39-2.16s-.36-1.42-.59-2.12-.49-1.38-.78-2.05-.61-1.33-1-2-.73-1.27-1.14-1.88-.85-1.2-1.31-1.77-1-1.11-1.46-1.64-1.05-1-1.61-1.5-1.13-.92-1.73-1.34-1.22-.82-1.85-1.19-1.29-.7-1.95-1-1.35-.58-2-.83-1.39-.45-2.1-.63-1.43-.33-2.15-.45-1.45-.2-2.18-.25-1.47-.06-2.2,0H184.61c-2.7,0-2.7,0-2.7,2.69V565.61a26.32,26.32,0,0,0,.23,4.07c.11.71.24,1.41.41,2.11s.37,1.38.6,2.06.49,1.35.78,2,.61,1.3,1,1.92A21.41,21.41,0,0,0,186,579.6c.4.59.83,1.16,1.29,1.72s.93,1.08,1.44,1.59,1,1,1.57,1.46,1.12.9,1.7,1.31,1.19.79,1.82,1.15,1.26.68,1.91,1,1.31.57,2,.81,1.36.44,2,.62,1.4.32,2.1.43,1.42.2,2.14.25,1.43.06,2.14.05c26.14-.1,52.27-.05,78.36-.05Zm83,1.05c-1.1-.87-2,0-2.84,0H204.53a24.55,24.55,0,0,1-4-.57,24.87,24.87,0,0,1-3.85-1.2,25.4,25.4,0,0,1-6.87-4.19,24.75,24.75,0,0,1-2.84-2.86,25.17,25.17,0,0,1-2.34-3.29,25.43,25.43,0,0,1-1.78-3.63,29,29,0,0,1-1.85-9.07V411.27c0-2.23,0-2.23,2.19-2.23h159.6c.72,0,1.44,0,2.17,0s1.44.12,2.16.24,1.42.25,2.12.43a20.77,20.77,0,0,1,2.08.62c.69.24,1.36.5,2,.8s1.31.63,1.94,1,1.24.74,1.84,1.15,1.17.85,1.73,1.31,1.09.95,1.6,1.47,1,1,1.46,1.6a20.24,20.24,0,0,1,1.32,1.73c.41.59.8,1.2,1.15,1.83s.69,1.28,1,1.94.57,1.33.81,2,.44,1.37.62,2.08.32,1.41.43,2.12a22,22,0,0,1,.32,3.89v156Z" transform="translate(-181 -409.03)"/><path class="cls-1" d="M263.93,444.81v-7.95c0-2.56-1.15-3.88-3.89-3.88H214.9c-3,0-4.11,1.09-4.11,4V553.83c0,3,1.14,4.11,4.16,4.11H328.49c2.14,0,2.74-.92,2.37-3a44.46,44.46,0,0,1-1.05-7.08,48.77,48.77,0,0,1,2-12.75,291.07,291.07,0,0,0,8.13-32.94,68.37,68.37,0,0,0,.32-19.74,48.41,48.41,0,0,0-1.82-8A47.89,47.89,0,0,0,330.87,460a47.67,47.67,0,0,0-5.49-6.05,52,52,0,0,0-5-4.47,52,52,0,0,0-11.58-6.79,48.66,48.66,0,0,0-6.35-2.21,50.9,50.9,0,0,0-6.58-1.37,51.46,51.46,0,0,0-13.43-.12,50.85,50.85,0,0,0-6.6,1.25,54.85,54.85,0,0,0-11.88,4.57Zm4.2-26.09h74.2a15.85,15.85,0,0,1,3.08.27,15.19,15.19,0,0,1,3,.87,14.9,14.9,0,0,1,2.74,1.44,13.7,13.7,0,0,1,1.24.92,15.45,15.45,0,0,1,2.19,2.19c.33.4.63.81.92,1.24a14.9,14.9,0,0,1,1.44,2.74,12.62,12.62,0,0,1,.51,1.46,13.25,13.25,0,0,1,.36,1.51,13.09,13.09,0,0,1,.21,1.53,13.39,13.39,0,0,1,.06,1.55V579.5c0,1.47-.41,1.74-1.78,1.74H206c-.5,0-1,0-1.5,0s-1-.1-1.49-.19-1-.21-1.46-.35a14.9,14.9,0,0,1-1.42-.49,13.85,13.85,0,0,1-1.36-.62c-.44-.24-.88-.49-1.29-.77s-.83-.57-1.22-.88-.76-.65-1.11-1-.7-.73-1-1.11-.61-.79-.89-1.2a15.29,15.29,0,0,1-1.41-2.65,13.23,13.23,0,0,1-.5-1.42,12.28,12.28,0,0,1-.36-1.45,15,15,0,0,1-.27-3V421.33c0-2.56,0-2.56,2.51-2.56Z" transform="translate(-181 -409.03)"/><path class="cls-2" d="M263.93,525.59v24.67a6.42,6.42,0,0,0,0,1.24c0,.73.55.86,1.05.32a6.9,6.9,0,0,0,.73-1.19c2.65-4.57,5.25-9.14,7.63-13.71a111.81,111.81,0,0,0,10.37-26.45,24,24,0,0,0-.46-14.62,8.92,8.92,0,0,0-1.18-2.47,9.34,9.34,0,0,0-1.86-2,9.26,9.26,0,0,0-5-2,9.67,9.67,0,0,0-2.74.21,9.67,9.67,0,0,0-6.4,4.82,13.26,13.26,0,0,0-1.57,3.55,13.52,13.52,0,0,0-.49,3.85q0,11.88,0,23.9Zm-6.31-68.53v-9.64c0-1.38-.27-1.83-1.78-1.83h-37c-1.28,0-1.28.36-1.28,1.55V550.22c0,1.19.28,1.6,1.51,1.6h37.15c1.32,0,1.59-.41,1.59-1.69V503.75a40,40,0,0,1,.37-6.08,17.61,17.61,0,0,1,.71-2.84,16.46,16.46,0,0,1,1.17-2.69,16.73,16.73,0,0,1,1.6-2.46,17.63,17.63,0,0,1,2-2.16,18.34,18.34,0,0,1,2.31-1.8,17.79,17.79,0,0,1,2.58-1.39,17.16,17.16,0,0,1,2.78-.94,16.7,16.7,0,0,1,2.9-.47,16.08,16.08,0,0,1,2.77.21,15.59,15.59,0,0,1,2.69.68,16.55,16.55,0,0,1,2.54,1.14,15.5,15.5,0,0,1,2.3,1.56,15.85,15.85,0,0,1,2,1.93,16.28,16.28,0,0,1,1.64,2.24,15.62,15.62,0,0,1,1.22,2.5,15.17,15.17,0,0,1,.78,2.67,37.38,37.38,0,0,1-.91,18.27,132.47,132.47,0,0,1-12,29c-1.46,2.74-3,5.43-4.57,8.36H321c2.69,0,2.74,0,2.6-2.7a62.78,62.78,0,0,1,3.2-19.46,215.2,215.2,0,0,0,7.31-29.93,55.14,55.14,0,0,0-.46-19A43.61,43.61,0,0,0,328,466.71a43.21,43.21,0,0,0-4.47-5.95,43.73,43.73,0,0,0-5.42-5.12c-.93-.78-1.88-1.51-2.87-2.21s-2-1.36-3-2-2.09-1.2-3.17-1.73-2.19-1-3.31-1.48-2.26-.85-3.41-1.21-2.32-.67-3.49-.93-2.37-.49-3.56-.66-2.4-.29-3.6-.37-2.41-.1-3.62-.09-2.41.09-3.61.21-2.4.27-3.59.48-2.37.47-3.53.77-2.33.65-3.47,1-2.26.84-3.37,1.32-2.19,1-3.26,1.58-2.1,1.18-3.12,1.83a63,63,0,0,0-6.44,4.85Zm6.31-12.25a54.66,54.66,0,0,1,11.92-4.57,51.32,51.32,0,0,1,6.61-1.25,51.38,51.38,0,0,1,13.42.12,51.05,51.05,0,0,1,6.59,1.37,49.71,49.71,0,0,1,6.35,2.21A51.19,51.19,0,0,1,325.42,454a47.65,47.65,0,0,1,13,20.49,46.46,46.46,0,0,1,1.82,8,68,68,0,0,1-.32,19.74,289.12,289.12,0,0,1-8.17,32.94,48.81,48.81,0,0,0-2.06,12.75,42.29,42.29,0,0,0,1,7.08c.37,2.1-.23,2.93-2.38,3H215c-3,0-4.15-1.14-4.15-4.11V437c0-2.93,1.09-4,4.11-4H260c2.74,0,3.84,1.14,3.89,3.88S263.93,442,263.93,444.81Z" transform="translate(-181 -409.03)"/><path class="cls-3" d="M257.62,457.06a63.79,63.79,0,0,1,6.26-4.85c1-.65,2.06-1.27,3.13-1.84s2.16-1.11,3.26-1.6,2.24-.93,3.39-1.33,2.3-.74,3.47-1.05,2.36-.56,3.55-.78,2.39-.37,3.6-.49,2.42-.18,3.63-.2,2.42,0,3.63.08,2.41.2,3.61.38,2.39.39,3.58.66,2.35.58,3.5.94,2.3.76,3.43,1.21,2.23.95,3.31,1.49,2.15,1.12,3.19,1.74,2,1.29,3,2,1.94,1.45,2.87,2.23a44,44,0,0,1,13.48,17.92,44.26,44.26,0,0,1,2.24,7.21,55.14,55.14,0,0,1,.45,19,215.55,215.55,0,0,1-7.31,29.93,62.78,62.78,0,0,0-3.2,19.46c0,2.7,0,2.7-2.6,2.7H272.65c1.6-2.93,3.16-5.62,4.57-8.37a131.22,131.22,0,0,0,12-29,37.37,37.37,0,0,0,1.6-9.08,37.76,37.76,0,0,0-.68-9.19,15.9,15.9,0,0,0-.76-2.72,15.59,15.59,0,0,0-2.86-4.84,15.83,15.83,0,0,0-4.35-3.56,16.28,16.28,0,0,0-5.3-1.84A15.61,15.61,0,0,0,274,483a16.74,16.74,0,0,0-2.89.47,18.19,18.19,0,0,0-2.78.94,17.79,17.79,0,0,0-2.58,1.39,19.19,19.19,0,0,0-2.32,1.8,18.37,18.37,0,0,0-2,2.16,17.86,17.86,0,0,0-1.6,2.46,17.75,17.75,0,0,0-1.88,5.53,40,40,0,0,0-.37,6.08v46.38c0,1.23-.27,1.69-1.6,1.69H218.88c-1.33-.09-1.33-.5-1.33-1.69V447.14c0-1.19,0-1.55,1.33-1.55h37c1.5,0,1.82.45,1.78,1.83C257.53,450.52,257.62,453.63,257.62,457.06Z" transform="translate(-181 -409.03)"/><path class="cls-1" d="M263.93,525.73v-24a13.21,13.21,0,0,1,.48-3.85,13.58,13.58,0,0,1,1.57-3.55,9.61,9.61,0,0,1,3.84-3.85,9.74,9.74,0,0,1,5.3-1.17,9.1,9.1,0,0,1,8.13,6.58,23.41,23.41,0,0,1,1.41,7.31,23.74,23.74,0,0,1-.9,7.4A112,112,0,0,1,273.38,537c-2.37,4.57-5,9.13-7.63,13.7a6,6,0,0,1-.73,1.19c-.5.55-.91.37-1-.32a6.32,6.32,0,0,1,0-1.23Q263.92,538.07,263.93,525.73Z" transform="translate(-181 -409.03)"/></svg>